{"title":"The Wicked 2013 DVDRip XviD juggs","uid":8282226,"size":742018631,"categoryP":"video","categoryS":"movies","magnet":"?xt=urn:btih:106b57752f8ae510bb2e183ec4828192d95cb021&amp;dn=The+Wicked+2013+DVDRip+XviD+juggs&amp;tr=udp%3A%2F%2Ftracker.openbittorrent.com%3A80&amp;tr=udp%3A%2F%2Fopen.demonii.com%3A1337&amp;tr=udp%3A%2F%2Ftracker.coppersurfer.tk%3A6969&amp;tr=udp%3A%2F%2Fexodus.desync.com%3A6969","seeders":2,"leechers":1,"uploader":"juggs99","files":3,"time":1363826020,"description":"Source :DVDR iNVANDRAREN (Thanks)\n &lt;a href=&quot;\nhttp://www.imdb.com/title/tt1986994/&quot; rel=&quot;nofollow&quot; target=&quot;_NEW&quot;&gt;\nhttp://www.imdb.com/title/tt1986994/&lt;/a&gt;\n\nFormat : AVI\nFormat/Info : Audio Video Interleave\nFile size : 700 MiB\nDuration : 1h 40mn\nOverall bit rate : 973 Kbps\nWriting library : VirtualDub build 32842/release\n\nVideo\nID : 0\nFormat : MPEG-4 Visual\nFormat profile : Advanced Simple@L5\nFormat settings, BVOP : 4\nFormat settings, QPel : No\nFormat settings, GMC : No warppoints\nFormat settings, Matrix : Default (H.263)\nMuxing mode : Packed bitstream\nCodec ID : XVID\nCodec ID/Hint : XviD\nDuration : 1h 40mn\nBit rate : 835 Kbps\nWidth : 640 pixels\nHeight : 352 pixels\nDisplay aspect ratio : 16:9\nFrame rate : 25.000 fps\nColor space : YUV\nChroma subsampling : 4:2:0\nBit depth : 8 bits\nScan type : Progressive\nCompression mode : Lossy\nBits/(Pixel*Frame) : 0.148\nStream size : 601 MiB (86%)\nWriting library : XviD 64\n\nAudio\nID : 1\nFormat : MPEG Audio\nFormat version : Version 1\nFormat profile : Layer 3\nMode : Joint stereo\nMode extension : MS Stereo\nCodec ID : 55\nCodec ID/Hint : MP3\nDuration : 1h 40mn\nBit rate mode : Constant\nBit rate : 128 Kbps\nChannel(s) : 2 channels\nSampling rate : 44.1 KHz\nCompression mode : Lossy\nStream size : 92.1 MiB (13%)\nAlignment : Split accross interleaves\nInterleave, duration : 40 ms (1.00 video frame)\nInterleave, preload duration : 500 ms\nWriting library : LAME3.98\n\n\nPlot\nA Group of teenagers test the legend of an immortal witch and get more than they bargained for.\n\n &lt;a href=&quot;\nhttp://www.shotpix.com/images/61979261817425491578.png&quot; rel=&quot;nofollow&quot; target=&quot;_NEW&quot;&gt;\nhttp://www.shotpix.com/images/61979261817425491578.png&lt;/a&gt; &lt;a href=&quot;\nhttp://www.shotpix.com/images/84114188687881848845.png&quot; rel=&quot;nofollow&quot; target=&quot;_NEW&quot;&gt;\nhttp://www.shotpix.com/images/84114188687881848845.png&lt;/a&gt; &lt;a href=&quot;\nhttp://www.shotpix.com/images/52589559727488467614.png&quot; rel=&quot;nofollow&quot; target=&quot;_NEW&quot;&gt;\nhttp://www.shotpix.com/images/52589559727488467614.png&lt;/a&gt;","torrent":{"xt":"urn:btih:106b57752f8ae510bb2e183ec4828192d95cb021","amp;dn":"The+Wicked+2013+DVDRip+XviD+juggs","amp;tr":["udp%3A%2F%2Ftracker.openbittorrent.com%3A80","udp%3A%2F%2Fopen.demonii.com%3A1337","udp%3A%2F%2Ftracker.coppersurfer.tk%3A6969","udp%3A%2F%2Fexodus.desync.com%3A6969"],"infoHash":"106b57752f8ae510bb2e183ec4828192d95cb021","infoHashBuffer":{"type":"Buffer","data":[16,107,87,117,47,138,229,16,187,46,24,62,196,130,129,146,217,92,176,33]},"announce":[],"urlList":[]}}